<svg id="Layer_1" data-name="Layer 1" xmlns="http://www.w3.org/2000/svg" xmlns:xlink="http://www.w3.org/1999/xlink" viewBox="0 0 219.87 40.92"><defs><style>.cls-1{fill:url(#linear-gradient);}.cls-2{fill:url(#linear-gradient-2);}.cls-3{fill:url(#linear-gradient-3);}.cls-4{fill:url(#linear-gradient-4);}.cls-5{fill:url(#linear-gradient-5);}.cls-6{font-size:23.58px;fill:#0f0c2d;font-family:Startup-Bold;font-weight:700;letter-spacing:-0.15em;}.cls-7{letter-spacing:-0.09em;}.cls-8{letter-spacing:-0.08em;}.cls-9{letter-spacing:-0.08em;}.cls-10{letter-spacing:-0.08em;}.cls-11{letter-spacing:-0.08em;}.cls-12{letter-spacing:-0.09em;}.cls-13{letter-spacing:-0.07em;}.cls-14{letter-spacing:-0.12em;}.cls-15{letter-spacing:-0.09em;}.cls-16{letter-spacing:-0.07em;}</style><linearGradient id="linear-gradient" x1="-15.3" y1="144.94" x2="104.08" y2="144.94" gradientUnits="userSpaceOnUse"><stop offset="0" stop-color="#30316d"/><stop offset="0.29" stop-color="#455194"/><stop offset="0.55" stop-color="#5468b1"/><stop offset="0.73" stop-color="#63c7df"/><stop offset="0.97" stop-color="#88d1cf"/></linearGradient><linearGradient id="linear-gradient-2" x1="22.44" y1="204.77" x2="66.7" y2="101.67" xlink:href="#linear-gradient"/><linearGradient id="linear-gradient-3" x1="27.89" y1="150.41" x2="51.64" y2="150.41" xlink:href="#linear-gradient"/><linearGradient id="linear-gradient-4" x1="27.89" y1="129.03" x2="51.64" y2="129.03" xlink:href="#linear-gradient"/><linearGradient id="linear-gradient-5" x1="-15.3" y1="157.17" x2="104.08" y2="157.17" xlink:href="#linear-gradient"/></defs><path class="cls-1" d="M63.65,142c-.5.66-1.5,1.28-1.22,2.25a2.12,2.12,0,0,0,.48.78q6.36,7.62,12.77,15.23,0-14.39,0-28.78c0-.61-.06-1.33-.58-1.64a1.2,1.2,0,0,0-1.2.06,37.74,37.74,0,0,0-3.08,3.36m.69,21h0Zm0,0,0,0h0Z" transform="translate(-27.27 -123.69)"/><path class="cls-2" d="M46,152.07a2.64,2.64,0,0,0,1.16-.9l21-25.06a1.81,1.81,0,0,0,.57-1.23,1.18,1.18,0,0,0-.81-.93,3.39,3.39,0,0,0-1.27-.16H46.17a1.8,1.8,0,0,0-1,.18c-.5.32-.55,1-.55,1.61v24.5c0,.8.17,1.82.95,2A1,1,0,0,0,46,152.07Zm-.21-.49,0,0h-.08Zm21-27.46v0l.05,0Zm-9.15.2-.07,0h.07Z" transform="translate(-27.27 -123.69)"/><path class="cls-3" d="M37.53,136.57a1,1,0,0,0-1.51,0c-.48.34-7.89,9.48-8.11,9.64a1.51,1.51,0,0,0-.63,1.31v15.74a1.2,1.2,0,0,0,1.27,1.33c.46,0,.93,0,1.39,0h6.7a1.76,1.76,0,0,0,.37-.07,2.59,2.59,0,0,0,.69-.46A1.53,1.53,0,0,0,38,163q0-12.55,0-25.12A1.49,1.49,0,0,0,37.53,136.57Zm-5.11,27.88,0,0v0Z" transform="translate(-27.27 -123.69)"/><path class="cls-4" d="M28.93,134.29c.48-.14.72-.54,1-.9,1.74-2.25,7.22-8.6,7.84-9.3.13-.15.2-.29-.1-.31-3-.19-6.05,0-9,0A1.2,1.2,0,0,0,27.29,125q0,4.11,0,8.22A1.14,1.14,0,0,0,28.93,134.29Z" transform="translate(-27.27 -123.69)"/><path class="cls-5" d="M59.53,151.18a9.64,9.64,0,0,0-1.06-1.06c-.77-.63-1.38-.49-2.07.47-.59.61-11.09,13.14-11.67,13.94l25.44.05c.1,0,.29.11.31-.13C70.06,163.91,60.57,152.39,59.53,151.18Zm-1.29-.33s0,0,0,0v0Zm-3.46,13.59Zm1.14,0Zm7.73,0h0l0,0v0Z" transform="translate(-27.27 -123.69)"/><text class="cls-6" transform="translate(57.29 26.72)">T<tspan class="cls-7" x="12.66" y="0">r</tspan><tspan class="cls-8" x="21.55" y="0">a</tspan><tspan class="cls-9" x="34.69" y="0">d</tspan><tspan class="cls-10" x="48.32" y="0">e</tspan><tspan class="cls-8" x="61.15" y="0">w</tspan><tspan class="cls-11" x="80.16" y="0">i</tspan><tspan class="cls-12" x="85.61" y="0">t</tspan><tspan class="cls-13" x="97.26" y="0">h</tspan><tspan class="cls-14" x="111.03" y="0">K</tspan><tspan class="cls-11" x="126.55" y="0">o</tspan><tspan class="cls-15" x="139.82" y="0">r</tspan><tspan class="cls-16" x="148.83" y="0">e</tspan></text></svg>